# xmcd
#
# Track frame offsets:
#	150
#	19834
#	38514
#	60700
#	79423
#	99733
#	115121
#	131109
#	148111
#	169233
#	185661
#
# Disc length: 2738 seconds
#
# Revision: 0
# Processed by: cddbd v1.5.2PL0 Copyright (c) Steve Scherf et al.
# Submitted via: EZCDAudioConverter 5.0.3.1
#
DISCID=9c0ab00b
DTITLE=Ragsy - Ouch!
DYEAR=2015
DGENRE=Indie
TTITLE0=Control
TTITLE1=Roll Me Out Like a Stone
TTITLE2=Breathe
TTITLE3=Silver Screen Dream
TTITLE4=Morning Sun
TTITLE5=Give In
TTITLE6=My Love....
TTITLE7=Turn a Light On
TTITLE8=Whisperes
TTITLE9=Coming Up For Air
TTITLE10=Extra!
EXTD=
EXTT0=
EXTT1=
EXTT2=
EXTT3=
EXTT4=
EXTT5=
EXTT6=
EXTT7=
EXTT8=
EXTT9=
EXTT10=
PLAYORDER=
